<?xml version="1.0" encoding="UTF-8" standalone="no"?>
<svg width="11px" height="21px" viewBox="0 0 11 21" version="1.1" xmlns="http://www.w3.org/2000/svg" xmlns:xlink="http://www.w3.org/1999/xlink" xmlns:sketch="http://www.bohemiancoding.com/sketch/ns">
    <!-- Generator: Sketch 3.5.2 (25235) - http://www.bohemiancoding.com/sketch -->
    <title>arrow-right</title>
    <desc>Created with Sketch.</desc>
    <defs>
        <path id="path-1" d="M0.191,0.182 C-0.06,0.426 -0.064,0.828 0.182,1.078 L0.182,1.078 L9.469,10.5 L0.182,19.922 C-0.064,20.172 -0.06,20.573 0.191,20.819 L0.191,20.819 C0.442,21.064 0.846,21.06 1.092,20.81 L1.092,20.81 L10.818,10.944 C11.061,10.697 11.061,10.303 10.818,10.056 L10.818,10.056 L1.092,0.191 C0.967,0.064 0.802,0.001 0.637,0.001 L0.637,0.001 C0.476,0.001 0.315,0.061 0.191,0.182 L0.191,0.182 Z"></path>
    </defs>
    <g id="Page-1" stroke="none" stroke-width="1" fill="none" fill-rule="evenodd" sketch:type="MSPage">
        <g id="Artboard" sketch:type="MSArtboardGroup">
            <mask id="mask-2" sketch:name="arrow-right" fill="white">
                <use xlink:href="#path-1"></use>
            </mask>
            <use id="arrow-right" fill="#333333" sketch:type="MSShapeGroup" xlink:href="#path-1"></use>
        </g>
    </g>
</svg>