<?xml version="1.0" encoding="UTF-8" standalone="no"?>
<svg width="11px" height="21px" viewBox="0 0 11 21" version="1.1" xmlns="http://www.w3.org/2000/svg" xmlns:xlink="http://www.w3.org/1999/xlink" xmlns:sketch="http://www.bohemiancoding.com/sketch/ns">
    <!-- Generator: Sketch 3.5.2 (25235) - http://www.bohemiancoding.com/sketch -->
    <title>arrow-left</title>
    <desc>Created with Sketch.</desc>
    <defs>
        <path id="path-1" d="M9.908,0.192 L0.182,10.056 C-0.061,10.303 -0.061,10.697 0.182,10.944 L0.182,10.944 L9.908,20.81 C10.154,21.06 10.558,21.064 10.809,20.82 L10.809,20.82 C11.061,20.573 11.064,20.172 10.818,19.922 L10.818,19.922 L1.531,10.5 L10.818,1.078 C11.064,0.828 11.061,0.426 10.809,0.182 L10.809,0.182 C10.685,0.06 10.524,0.001 10.363,0.001 L10.363,0.001 C10.198,0.001 10.034,0.065 9.908,0.192 L9.908,0.192 Z"></path>
    </defs>
    <g id="Page-1" stroke="none" stroke-width="1" fill="none" fill-rule="evenodd" sketch:type="MSPage">
        <g id="Artboard" sketch:type="MSArtboardGroup">
            <mask id="mask-2" sketch:name="arrow-left" fill="white">
                <use xlink:href="#path-1"></use>
            </mask>
            <use id="arrow-left" fill="#333333" sketch:type="MSShapeGroup" xlink:href="#path-1"></use>
        </g>
    </g>
</svg>